<svg id="svg" version="1.1" xmlns="http://www.w3.org/2000/svg" xmlns:xlink="http://www.w3.org/1999/xlink" width="400" height="33.91655450874831" viewBox="0, 0, 400,33.91655450874831"><g id="svgg"><path id="path0" d="M0.000 16.917 L 0.000 33.833 200.000 33.833 L 400.000 33.833 400.000 16.917 L 400.000 0.000 200.000 0.000 L 0.000 0.000 0.000 16.917 M10.370 8.458 L 10.417 10.583 11.451 10.633 L 12.484 10.682 12.534 11.716 L 12.583 12.750 13.625 12.800 L 14.667 12.849 14.667 13.841 L 14.667 14.833 15.330 14.833 L 15.994 14.833 16.039 10.625 L 16.083 6.417 18.583 6.417 L 21.083 6.417 21.126 15.981 C 21.158 22.907,21.117 25.609,20.981 25.773 C 20.729 26.076,16.500 26.100,16.200 25.800 C 16.059 25.659,16.000 24.700,16.000 22.550 L 16.000 19.500 15.018 19.500 C 13.896 19.500,13.833 19.429,13.833 18.161 L 13.833 17.349 12.792 17.300 L 11.750 17.250 11.700 16.199 L 11.650 15.148 11.033 15.199 L 10.417 15.250 10.373 20.492 C 10.339 24.430,10.277 25.766,10.123 25.864 C 9.816 26.059,5.863 26.027,5.489 25.827 C 5.167 25.655,4.957 7.407,5.268 6.597 C 5.354 6.373,5.741 6.333,7.846 6.333 L 10.323 6.333 10.370 8.458 M32.466 7.451 L 32.516 8.484 33.549 8.534 L 34.583 8.583 34.633 9.625 L 34.683 10.667 35.657 10.667 C 36.391 10.667,36.656 10.732,36.732 10.930 C 36.939 11.469,36.845 25.588,36.633 25.800 C 36.423 26.010,32.439 26.094,31.930 25.899 C 31.703 25.812,31.667 25.366,31.667 22.649 L 31.667 19.500 29.917 19.500 L 28.167 19.500 28.167 22.550 C 28.167 24.700,28.108 25.659,27.967 25.800 C 27.666 26.101,23.437 26.076,23.185 25.772 C 23.049 25.609,23.009 23.470,23.040 18.147 L 23.083 10.750 24.083 10.667 L 25.083 10.583 25.167 9.583 L 25.250 8.583 26.292 8.534 L 27.333 8.484 27.333 7.520 C 27.333 6.260,27.200 6.318,29.990 6.371 L 32.417 6.417 32.466 7.451 M45.899 6.597 C 45.954 6.742,46.000 10.117,46.000 14.097 L 46.000 21.333 47.667 21.333 L 49.333 21.333 49.336 14.042 C 49.337 10.031,49.399 6.654,49.474 6.537 C 49.576 6.376,50.201 6.335,52.013 6.370 L 54.417 6.417 54.417 14.000 L 54.417 21.583 53.383 21.633 L 52.349 21.682 52.299 22.716 L 52.250 23.750 51.208 23.800 L 50.167 23.849 50.167 24.823 C 50.167 26.022,50.214 26.000,47.667 26.000 C 45.119 26.000,45.167 26.022,45.167 24.823 L 45.167 23.849 44.125 23.800 L 43.083 23.750 43.034 22.716 L 42.984 21.682 41.951 21.633 L 40.917 21.583 40.873 13.958 L 40.830 6.333 43.314 6.333 C 45.425 6.333,45.813 6.373,45.899 6.597 M70.134 7.389 C 70.199 8.640,70.032 8.833,68.896 8.833 L 68.000 8.833 68.000 16.159 L 68.000 23.484 69.042 23.534 L 70.083 23.583 70.134 24.556 C 70.212 26.067,70.429 26.000,65.430 26.000 C 60.542 26.000,60.667 26.031,60.667 24.814 C 60.667 23.574,60.733 23.500,61.851 23.500 L 62.833 23.500 62.833 16.167 L 62.833 8.833 61.950 8.833 C 60.836 8.833,60.667 8.656,60.667 7.494 C 60.667 6.241,60.314 6.323,65.489 6.372 L 70.083 6.417 70.134 7.389 M107.800 7.389 C 107.873 8.797,107.815 8.833,105.480 8.833 L 103.500 8.833 103.500 17.316 C 103.500 24.896,103.472 25.808,103.236 25.899 C 102.727 26.094,98.744 26.010,98.533 25.800 C 98.383 25.650,98.333 23.515,98.333 17.217 L 98.333 8.833 96.367 8.833 C 94.108 8.833,94.000 8.779,94.000 7.647 C 94.000 6.209,93.367 6.324,100.977 6.373 L 107.750 6.417 107.800 7.389 M125.566 6.597 C 125.741 7.055,125.675 8.425,125.467 8.633 C 125.322 8.778,124.126 8.833,121.133 8.833 L 117.000 8.833 117.000 11.833 L 117.000 14.833 120.063 14.833 C 123.607 14.833,123.543 14.806,123.467 16.278 L 123.417 17.250 120.208 17.295 L 117.000 17.341 117.000 20.420 L 117.000 23.500 121.133 23.500 C 125.795 23.500,125.667 23.465,125.667 24.750 C 125.667 25.217,125.577 25.690,125.467 25.800 C 125.179 26.087,112.321 26.087,112.033 25.800 C 111.815 25.582,111.729 6.660,111.944 6.444 C 112.215 6.174,125.460 6.322,125.566 6.597 M141.200 7.375 L 141.250 8.417 142.250 8.500 L 143.250 8.583 143.250 11.833 L 143.250 15.083 142.250 15.167 L 141.250 15.250 141.203 17.200 L 141.156 19.150 142.203 19.200 L 143.250 19.250 143.295 22.488 C 143.349 26.326,143.591 25.994,140.742 25.997 C 137.965 26.001,138.167 26.271,138.167 22.550 L 138.167 19.500 137.283 19.500 C 136.179 19.500,136.000 19.321,136.000 18.217 L 136.000 17.333 135.417 17.333 L 134.833 17.333 134.833 21.467 C 134.833 24.459,134.778 25.655,134.633 25.800 C 134.423 26.010,130.439 26.094,129.930 25.899 C 129.694 25.808,129.667 24.786,129.667 16.066 L 129.667 6.333 135.409 6.333 L 141.151 6.333 141.200 7.375 M152.500 8.500 L 152.583 10.583 153.583 10.667 L 154.583 10.750 154.667 11.750 L 154.750 12.750 155.333 12.750 L 155.917 12.750 156.000 11.750 L 156.083 10.750 157.083 10.667 L 158.083 10.583 158.167 8.500 L 158.250 6.417 160.750 6.417 L 163.250 6.417 163.293 15.981 C 163.324 22.907,163.284 25.609,163.148 25.773 C 162.938 26.026,158.758 26.106,158.377 25.864 C 158.220 25.764,158.160 24.213,158.127 19.408 L 158.083 13.083 157.500 13.083 L 156.917 13.083 156.833 16.250 L 156.750 19.417 155.333 19.417 L 153.917 19.417 153.833 16.250 L 153.750 13.083 153.167 13.083 L 152.583 13.083 152.540 19.408 C 152.506 24.213,152.446 25.764,152.290 25.864 C 151.943 26.084,147.761 26.028,147.533 25.800 C 147.313 25.579,147.230 6.659,147.449 6.440 C 147.512 6.377,148.656 6.345,149.990 6.371 L 152.417 6.417 152.500 8.500 M176.667 7.482 C 176.667 8.778,176.615 8.833,175.403 8.833 L 174.667 8.833 174.667 16.158 L 174.667 23.483 175.625 23.533 L 176.583 23.583 176.634 24.651 C 176.700 26.061,176.928 25.995,172.000 25.995 C 167.072 25.995,167.300 26.061,167.366 24.651 L 167.417 23.583 168.417 23.500 L 169.417 23.417 169.460 16.125 L 169.504 8.833 168.682 8.833 C 167.394 8.833,167.333 8.778,167.333 7.593 C 167.333 6.230,166.940 6.333,172.111 6.333 L 176.667 6.333 176.667 7.482 M188.037 8.458 L 188.083 10.583 189.117 10.633 L 190.151 10.682 190.201 11.716 L 190.250 12.750 191.292 12.800 L 192.333 12.849 192.333 13.841 L 192.333 14.833 192.997 14.833 L 193.661 14.833 193.705 10.625 L 193.750 6.417 196.250 6.417 L 198.750 6.417 198.793 15.981 C 198.824 22.907,198.784 25.609,198.648 25.773 C 198.396 26.076,194.167 26.100,193.867 25.800 C 193.726 25.659,193.667 24.700,193.667 22.550 L 193.667 19.500 192.684 19.500 C 191.563 19.500,191.500 19.429,191.500 18.161 L 191.500 17.349 190.458 17.300 L 189.417 17.250 189.367 16.199 L 189.317 15.148 188.700 15.199 L 188.083 15.250 188.039 20.492 C 188.006 24.430,187.944 25.766,187.789 25.864 C 187.443 26.084,183.261 26.028,183.033 25.800 C 182.821 25.588,182.726 7.139,182.934 6.597 C 183.020 6.373,183.408 6.333,185.513 6.333 L 187.990 6.333 188.037 8.458 M210.133 7.458 L 210.183 8.500 211.157 8.500 C 212.270 8.500,212.333 8.572,212.333 9.847 L 212.333 10.667 213.316 10.667 C 214.057 10.667,214.322 10.731,214.399 10.930 C 214.606 11.469,214.512 25.588,214.300 25.800 C 214.090 26.010,210.106 26.094,209.597 25.899 C 209.369 25.812,209.333 25.366,209.333 22.649 L 209.333 19.500 207.583 19.500 L 205.833 19.500 205.833 22.550 C 205.833 24.700,205.774 25.659,205.633 25.800 C 205.333 26.101,201.104 26.076,200.852 25.772 C 200.716 25.609,200.675 23.470,200.707 18.147 L 200.750 10.750 201.750 10.667 L 202.750 10.583 202.833 9.583 L 202.917 8.583 203.917 8.500 L 204.917 8.417 204.963 7.583 C 205.038 6.246,204.879 6.319,207.621 6.371 L 210.083 6.417 210.133 7.458 M223.566 6.597 C 223.621 6.742,223.667 10.603,223.667 15.177 L 223.667 23.494 227.875 23.539 L 232.083 23.583 232.134 24.651 C 232.169 25.393,232.118 25.762,231.967 25.857 C 231.720 26.014,219.167 26.054,218.764 25.899 C 218.527 25.808,218.500 24.786,218.500 16.066 L 218.500 6.333 220.982 6.333 C 223.092 6.333,223.480 6.373,223.566 6.597 M259.127 13.881 L 259.170 21.345 260.877 21.297 L 262.583 21.250 262.627 13.792 L 262.670 6.333 265.170 6.333 L 267.670 6.333 267.627 13.958 L 267.583 21.583 266.549 21.633 L 265.516 21.682 265.466 22.716 L 265.417 23.750 264.458 23.800 L 263.500 23.850 263.500 24.725 C 263.500 25.965,263.431 26.000,260.980 26.000 C 258.270 26.000,258.333 26.028,258.333 24.823 L 258.333 23.849 257.292 23.800 L 256.250 23.750 256.201 22.716 L 256.151 21.682 255.117 21.633 L 254.083 21.583 254.040 14.167 C 254.016 10.087,254.033 6.654,254.078 6.537 C 254.140 6.375,254.744 6.335,256.621 6.371 L 259.083 6.417 259.127 13.881 M301.066 6.597 C 301.274 7.139,301.179 25.588,300.967 25.800 C 300.739 26.028,296.557 26.084,296.210 25.864 C 296.054 25.764,295.994 24.213,295.960 19.408 L 295.917 13.083 292.750 13.000 L 289.583 12.917 289.583 11.833 L 289.583 10.750 291.667 10.667 L 293.750 10.583 293.833 9.583 L 293.917 8.583 294.917 8.500 L 295.917 8.417 295.963 7.583 C 296.037 6.263,295.892 6.333,298.560 6.333 C 300.599 6.333,300.980 6.373,301.066 6.597 M336.633 7.451 L 336.682 8.484 337.716 8.534 L 338.750 8.583 338.797 13.667 C 338.854 19.908,338.933 19.500,337.663 19.500 L 336.667 19.500 336.667 20.383 C 336.667 21.488,336.488 21.667,335.383 21.667 L 334.500 21.667 334.500 23.633 C 334.500 26.180,334.778 26.000,330.833 26.000 C 327.150 26.000,327.167 26.005,327.167 24.814 C 327.167 23.575,327.234 23.500,328.343 23.500 L 329.317 23.500 329.367 22.458 L 329.417 21.417 330.458 21.367 L 331.500 21.317 331.500 20.409 L 331.500 19.500 329.434 19.500 C 327.104 19.500,327.167 19.537,327.167 18.161 L 327.167 17.349 326.125 17.300 L 325.083 17.250 325.083 12.917 L 325.083 8.583 326.125 8.534 L 327.167 8.484 327.167 7.520 C 327.167 6.237,326.805 6.322,331.989 6.372 L 336.583 6.417 336.633 7.451 M354.367 7.375 L 354.417 8.417 355.461 8.466 L 356.505 8.516 356.461 13.966 L 356.417 19.417 355.417 19.500 L 354.417 19.583 354.333 20.583 L 354.250 21.583 353.292 21.633 L 352.333 21.683 352.333 23.642 C 352.333 26.179,352.610 26.001,348.675 25.997 C 344.834 25.994,344.967 26.044,345.033 24.651 L 345.083 23.583 346.083 23.500 L 347.083 23.417 347.167 22.417 L 347.250 21.417 348.250 21.333 L 349.250 21.250 349.250 20.417 L 349.250 19.583 347.167 19.500 L 345.083 19.417 345.000 18.417 L 344.917 17.417 343.917 17.333 L 342.917 17.250 342.917 12.917 L 342.917 8.583 343.917 8.500 L 344.917 8.417 344.963 7.583 C 344.989 7.125,345.043 6.656,345.083 6.542 C 345.139 6.382,346.222 6.333,349.737 6.333 L 354.317 6.333 354.367 7.375 M389.899 6.597 C 389.954 6.742,390.000 7.229,390.000 7.680 L 390.000 8.500 390.982 8.500 C 392.216 8.500,392.167 8.360,392.167 11.833 C 392.167 15.307,392.216 15.167,390.982 15.167 L 390.000 15.167 390.000 16.083 L 390.000 17.000 390.883 17.000 C 392.176 17.000,392.167 16.975,392.167 20.417 C 392.167 23.858,392.176 23.833,390.883 23.833 L 390.000 23.833 390.000 24.717 C 390.000 26.044,390.164 26.000,385.250 26.000 C 380.336 26.000,380.500 26.044,380.500 24.717 L 380.500 23.833 379.680 23.833 C 378.256 23.833,378.333 24.024,378.333 20.516 C 378.333 16.965,378.321 17.000,379.617 17.000 L 380.500 17.000 380.500 16.091 L 380.500 15.183 379.458 15.133 L 378.417 15.083 378.417 11.833 L 378.417 8.583 379.458 8.534 L 380.500 8.484 380.500 7.520 C 380.500 6.989,380.550 6.506,380.611 6.444 C 380.880 6.176,389.793 6.322,389.899 6.597 M134.833 11.833 L 134.833 14.833 136.500 14.833 L 138.167 14.833 138.167 11.833 L 138.167 8.833 136.500 8.833 L 134.833 8.833 134.833 11.833 M330.167 12.917 L 330.167 17.000 331.917 17.000 L 333.667 17.000 333.667 12.917 L 333.667 8.833 331.917 8.833 L 330.167 8.833 330.167 12.917 M348.000 12.917 L 348.000 17.000 349.667 17.000 L 351.333 17.000 351.333 12.917 L 351.333 8.833 349.667 8.833 L 348.000 8.833 348.000 12.917 M383.500 10.825 L 383.500 12.817 384.542 12.867 L 385.583 12.917 385.633 13.875 L 385.683 14.833 386.342 14.833 L 387.000 14.833 387.000 11.833 L 387.000 8.833 385.250 8.833 L 383.500 8.833 383.500 10.825 M28.283 10.939 C 28.219 11.003,28.167 12.393,28.167 14.028 L 28.167 17.000 29.920 17.000 L 31.674 17.000 31.629 13.958 L 31.583 10.917 29.992 10.869 C 29.116 10.843,28.348 10.875,28.283 10.939 M205.950 10.939 C 205.886 11.003,205.833 12.393,205.833 14.028 L 205.833 17.000 207.587 17.000 L 209.341 17.000 209.295 13.958 L 209.250 10.917 207.658 10.869 C 206.783 10.843,206.014 10.875,205.950 10.939 M383.500 20.412 L 383.500 23.512 385.208 23.464 L 386.917 23.417 386.917 21.500 L 386.917 19.583 385.917 19.500 L 384.917 19.417 384.833 18.417 L 384.750 17.417 384.125 17.365 L 383.500 17.313 383.500 20.412 M283.297 23.477 C 283.359 26.202,283.649 26.000,279.680 26.000 C 275.732 26.000,276.000 26.165,276.000 23.730 C 276.000 21.070,275.606 21.319,279.727 21.372 L 283.250 21.417 283.297 23.477 M318.797 23.570 C 318.854 26.213,319.182 25.994,315.158 25.997 C 311.227 26.001,311.500 26.175,311.500 23.667 C 311.500 21.138,311.201 21.318,315.328 21.372 L 318.750 21.417 318.797 23.570 M372.130 23.477 C 372.192 26.202,372.482 26.000,368.513 26.000 C 364.565 26.000,364.833 26.165,364.833 23.730 C 364.833 21.070,364.440 21.319,368.561 21.372 L 372.083 21.417 372.130 23.477 " stroke="none" fill="#fcfcfc" fill-rule="evenodd"></path><path id="path1" d="M5.500 16.083 L 5.500 25.667 7.831 25.667 L 10.162 25.667 10.206 20.375 L 10.250 15.083 11.000 15.083 L 11.750 15.083 11.833 16.083 L 11.917 17.083 12.917 17.167 L 13.917 17.250 14.000 18.250 L 14.083 19.250 15.121 19.300 L 16.159 19.349 16.205 22.466 L 16.250 25.583 18.626 25.630 L 21.003 25.676 20.960 16.130 L 20.917 6.583 18.583 6.583 L 16.250 6.583 16.205 10.789 L 16.161 14.995 15.747 15.099 C 14.785 15.340,14.500 15.088,14.500 13.997 L 14.500 13.000 13.680 13.000 C 12.404 13.000,12.333 12.938,12.333 11.816 L 12.333 10.833 11.450 10.833 C 10.211 10.833,10.167 10.752,10.167 8.467 L 10.167 6.500 7.833 6.500 L 5.500 6.500 5.500 16.083 M27.585 6.704 C 27.544 6.821,27.489 7.292,27.463 7.750 L 27.417 8.583 26.417 8.667 L 25.417 8.750 25.333 9.750 L 25.250 10.750 24.250 10.833 L 23.250 10.917 23.250 18.250 L 23.250 25.583 25.621 25.630 L 27.993 25.676 28.038 22.546 L 28.083 19.417 29.917 19.417 L 31.750 19.417 31.795 22.542 L 31.841 25.667 34.170 25.667 L 36.500 25.667 36.500 18.258 L 36.500 10.850 35.542 10.800 L 34.583 10.750 34.500 9.750 L 34.417 8.750 33.417 8.667 L 32.417 8.583 32.333 7.583 L 32.250 6.583 29.955 6.537 C 28.208 6.502,27.642 6.541,27.585 6.704 M41.076 6.708 C 41.032 6.823,41.016 10.179,41.040 14.167 L 41.083 21.417 42.083 21.500 L 43.083 21.583 43.167 22.583 L 43.250 23.583 44.250 23.667 L 45.250 23.750 45.300 24.708 L 45.350 25.667 47.667 25.667 L 49.983 25.667 50.033 24.708 L 50.083 23.750 51.083 23.667 L 52.083 23.583 52.167 22.583 L 52.250 21.583 53.250 21.500 L 54.250 21.417 54.250 14.000 L 54.250 6.583 51.958 6.537 L 49.667 6.491 49.667 13.732 C 49.667 17.714,49.621 21.091,49.566 21.236 C 49.415 21.627,45.918 21.627,45.768 21.236 C 45.712 21.091,45.667 17.716,45.667 13.736 L 45.667 6.500 43.411 6.500 C 41.761 6.500,41.135 6.556,41.076 6.708 M60.902 6.728 C 60.853 6.857,60.836 7.289,60.864 7.689 L 60.917 8.417 61.917 8.500 L 62.917 8.583 62.960 16.117 L 63.003 23.651 61.960 23.700 L 60.917 23.750 60.917 24.667 L 60.917 25.583 65.467 25.628 L 70.017 25.672 69.967 24.711 L 69.917 23.750 68.917 23.667 L 67.917 23.583 67.873 16.178 C 67.825 7.895,67.724 8.507,69.133 8.503 L 70.017 8.500 69.967 7.542 L 69.917 6.583 65.454 6.539 C 61.750 6.502,60.976 6.534,60.902 6.728 M94.333 7.498 L 94.333 8.500 96.300 8.500 C 97.607 8.500,98.334 8.567,98.467 8.700 C 98.617 8.850,98.667 10.985,98.667 17.283 L 98.667 25.667 101.000 25.667 L 103.333 25.667 103.333 17.184 C 103.333 9.604,103.361 8.692,103.597 8.601 C 103.742 8.546,104.721 8.500,105.772 8.500 L 107.683 8.500 107.633 7.542 L 107.583 6.583 100.958 6.540 L 94.333 6.496 94.333 7.498 M112.111 6.611 C 112.050 6.672,112.000 10.985,112.000 16.194 L 112.000 25.667 118.667 25.667 L 125.333 25.667 125.333 24.670 L 125.333 23.672 121.125 23.628 L 116.917 23.583 116.917 20.417 L 116.917 17.250 120.083 17.167 L 123.250 17.083 123.250 16.167 L 123.250 15.250 120.083 15.157 C 118.342 15.106,116.898 15.050,116.875 15.032 C 116.655 14.862,116.868 8.689,117.097 8.601 C 117.242 8.546,119.154 8.500,121.347 8.500 L 125.333 8.500 125.333 7.500 L 125.333 6.500 118.778 6.500 C 115.172 6.500,112.172 6.550,112.111 6.611 M129.833 16.081 L 129.833 25.667 132.167 25.667 L 134.500 25.667 134.500 21.680 C 134.500 17.028,134.472 17.167,135.417 17.167 C 136.242 17.167,136.333 17.300,136.333 18.514 L 136.333 19.333 137.316 19.333 C 138.552 19.333,138.500 19.183,138.500 22.764 L 138.500 25.667 140.837 25.667 L 143.174 25.667 143.129 22.542 L 143.083 19.417 142.083 19.333 L 141.083 19.250 141.083 17.167 L 141.083 15.083 142.083 15.000 L 143.083 14.917 143.083 11.833 L 143.083 8.750 142.083 8.667 L 141.083 8.583 141.000 7.583 L 140.917 6.583 135.375 6.539 L 129.833 6.496 129.833 16.081 M147.578 6.704 C 147.533 6.821,147.516 11.117,147.540 16.250 L 147.583 25.583 149.956 25.630 L 152.329 25.676 152.373 19.296 L 152.417 12.917 153.167 12.917 L 153.917 12.917 154.000 16.083 L 154.083 19.250 155.333 19.250 L 156.583 19.250 156.667 16.083 L 156.750 12.917 157.500 12.917 L 158.250 12.917 158.294 19.296 L 158.337 25.676 160.710 25.630 L 163.083 25.583 163.083 16.083 L 163.083 6.583 160.750 6.583 L 158.417 6.583 158.333 8.667 L 158.250 10.750 157.250 10.833 L 156.250 10.917 156.167 11.917 L 156.083 12.917 155.333 12.917 L 154.583 12.917 154.500 11.917 L 154.417 10.917 153.417 10.833 L 152.417 10.750 152.333 8.667 L 152.250 6.583 149.955 6.537 C 148.211 6.502,147.640 6.542,147.578 6.704 M167.611 6.611 C 167.550 6.672,167.500 7.122,167.500 7.611 L 167.500 8.500 168.396 8.500 C 169.747 8.500,169.676 8.048,169.627 16.269 L 169.583 23.583 168.583 23.667 L 167.583 23.750 167.533 24.708 L 167.483 25.667 172.000 25.667 L 176.517 25.667 176.467 24.708 L 176.417 23.750 175.504 23.698 C 174.266 23.628,174.339 24.104,174.336 16.075 C 174.333 8.035,174.254 8.500,175.617 8.500 L 176.500 8.500 176.500 7.500 L 176.500 6.500 172.111 6.500 C 169.697 6.500,167.672 6.550,167.611 6.611 M183.167 16.083 L 183.167 25.667 185.498 25.667 L 187.829 25.667 187.873 20.375 L 187.917 15.083 188.667 15.083 L 189.417 15.083 189.500 16.083 L 189.583 17.083 190.583 17.167 L 191.583 17.250 191.667 18.250 L 191.750 19.250 192.750 19.333 L 193.750 19.417 193.795 22.542 L 193.841 25.667 196.255 25.667 L 198.669 25.667 198.626 16.125 L 198.583 6.583 196.250 6.583 L 193.917 6.583 193.872 10.789 L 193.828 14.995 193.414 15.099 C 192.454 15.340,192.167 15.088,192.167 14.005 L 192.167 13.016 191.125 12.966 L 190.083 12.917 190.034 11.875 L 189.984 10.833 189.109 10.833 C 187.879 10.833,187.833 10.750,187.833 8.467 L 187.833 6.500 185.500 6.500 L 183.167 6.500 183.167 16.083 M205.252 6.704 C 205.210 6.821,205.156 7.292,205.130 7.750 L 205.083 8.583 204.083 8.667 L 203.083 8.750 203.000 9.750 L 202.917 10.750 201.917 10.833 L 200.917 10.917 200.873 18.292 L 200.830 25.667 203.245 25.667 L 205.659 25.667 205.705 22.542 L 205.750 19.417 207.583 19.417 L 209.417 19.417 209.462 22.542 L 209.507 25.667 211.837 25.667 L 214.167 25.667 214.167 18.250 L 214.167 10.833 213.283 10.833 C 212.181 10.833,212.000 10.654,212.000 9.558 L 212.000 8.683 211.042 8.633 L 210.083 8.583 210.000 7.583 L 209.917 6.583 207.622 6.537 C 205.875 6.502,205.309 6.541,205.252 6.704 M218.667 16.083 L 218.667 25.667 225.342 25.667 L 232.017 25.667 231.967 24.708 L 231.917 23.750 227.758 23.705 C 224.686 23.672,223.565 23.607,223.469 23.455 C 223.397 23.342,223.337 19.481,223.336 14.875 L 223.333 6.500 221.000 6.500 L 218.667 6.500 218.667 16.083 M254.243 6.708 C 254.199 6.823,254.183 10.179,254.207 14.167 L 254.250 21.417 255.250 21.500 L 256.250 21.583 256.333 22.583 L 256.417 23.583 257.417 23.667 L 258.417 23.750 258.467 24.708 L 258.517 25.667 260.833 25.667 L 263.150 25.667 263.200 24.708 L 263.250 23.750 264.250 23.667 L 265.250 23.583 265.333 22.583 L 265.417 21.583 266.417 21.500 L 267.417 21.417 267.460 13.958 L 267.503 6.500 265.170 6.500 L 262.837 6.500 262.793 13.958 L 262.750 21.417 260.930 21.464 C 259.586 21.499,259.075 21.456,258.974 21.298 C 258.900 21.180,258.837 17.802,258.836 13.792 L 258.833 6.500 256.578 6.500 C 254.928 6.500,254.301 6.556,254.243 6.708 M296.250 6.708 C 296.209 6.823,296.156 7.292,296.130 7.750 L 296.083 8.583 295.083 8.667 L 294.083 8.750 294.000 9.750 L 293.917 10.750 291.833 10.833 L 289.750 10.917 289.750 11.833 L 289.750 12.750 292.917 12.833 L 296.083 12.917 296.127 19.292 L 296.171 25.667 298.502 25.667 L 300.833 25.667 300.833 16.083 L 300.833 6.500 298.578 6.500 C 296.924 6.500,296.303 6.556,296.250 6.708 M327.417 6.706 C 327.377 6.822,327.322 7.292,327.297 7.750 L 327.250 8.583 326.250 8.667 L 325.250 8.750 325.250 12.917 L 325.250 17.083 326.250 17.167 L 327.250 17.250 327.333 18.250 L 327.417 19.250 329.500 19.333 L 331.583 19.417 331.583 20.417 L 331.583 21.417 330.583 21.500 L 329.583 21.583 329.500 22.583 L 329.417 23.583 328.417 23.667 L 327.417 23.750 327.417 24.667 L 327.417 25.583 330.875 25.628 L 334.333 25.673 334.333 23.587 L 334.333 21.500 335.217 21.500 C 336.319 21.500,336.500 21.321,336.500 20.225 L 336.500 19.349 337.542 19.300 L 338.583 19.250 338.583 14.000 L 338.583 8.750 337.583 8.667 L 336.583 8.583 336.500 7.583 L 336.417 6.583 331.954 6.539 C 328.472 6.504,327.475 6.541,327.417 6.706 M345.250 6.708 C 345.209 6.823,345.156 7.292,345.130 7.750 L 345.083 8.583 344.083 8.667 L 343.083 8.750 343.083 12.917 L 343.083 17.083 344.083 17.167 L 345.083 17.250 345.167 18.250 L 345.250 19.250 347.333 19.333 L 349.417 19.417 349.417 20.417 L 349.417 21.417 348.417 21.500 L 347.417 21.583 347.333 22.583 L 347.250 23.583 346.250 23.667 L 345.250 23.750 345.200 24.708 L 345.150 25.667 348.570 25.667 L 351.990 25.667 352.037 23.625 L 352.083 21.583 353.083 21.500 L 354.083 21.417 354.167 20.417 L 354.250 19.417 355.250 19.333 L 356.250 19.250 356.294 13.966 L 356.338 8.683 355.294 8.633 L 354.250 8.583 354.200 7.542 L 354.151 6.500 349.737 6.500 C 346.356 6.500,345.306 6.549,345.250 6.708 M380.750 6.708 C 380.709 6.823,380.656 7.292,380.630 7.750 L 380.583 8.583 379.583 8.667 L 378.583 8.750 378.583 11.833 L 378.583 14.917 379.583 15.000 L 380.583 15.083 380.634 16.068 C 380.694 17.232,380.599 17.327,379.371 17.331 L 378.493 17.333 378.538 20.458 L 378.583 23.583 379.625 23.633 L 380.667 23.683 380.667 24.675 L 380.667 25.667 385.158 25.667 L 389.650 25.667 389.700 24.708 L 389.750 23.750 390.750 23.667 L 391.750 23.583 391.795 20.458 L 391.841 17.333 390.954 17.333 C 389.883 17.333,389.667 17.148,389.667 16.230 C 389.667 15.082,389.746 15.000,390.851 15.000 L 391.833 15.000 391.833 11.833 L 391.833 8.667 390.851 8.667 C 389.729 8.667,389.667 8.596,389.667 7.320 L 389.667 6.500 385.245 6.500 C 381.857 6.500,380.806 6.549,380.750 6.708 M138.300 8.700 C 138.440 8.840,138.500 9.774,138.500 11.833 C 138.500 15.350,138.610 15.167,136.500 15.167 C 134.390 15.167,134.500 15.350,134.500 11.833 C 134.500 9.774,134.560 8.840,134.700 8.700 C 134.972 8.428,138.028 8.428,138.300 8.700 M333.570 8.601 C 333.800 8.690,333.833 9.227,333.833 12.917 C 333.833 16.606,333.800 17.144,333.570 17.232 C 333.227 17.364,330.606 17.364,330.264 17.232 C 329.912 17.097,329.859 8.751,330.208 8.610 C 330.509 8.489,333.258 8.481,333.570 8.601 M351.467 8.700 C 351.611 8.844,351.667 10.015,351.667 12.917 C 351.667 17.659,351.814 17.333,349.667 17.333 C 347.519 17.333,347.667 17.659,347.667 12.917 C 347.667 10.015,347.722 8.844,347.867 8.700 C 348.139 8.428,351.194 8.428,351.467 8.700 M386.967 8.700 C 387.281 9.014,387.245 14.727,386.928 14.991 C 386.243 15.559,385.588 15.143,385.500 14.083 L 385.417 13.083 384.417 13.000 L 383.417 12.917 383.369 10.926 C 383.343 9.832,383.360 8.838,383.406 8.718 C 383.518 8.425,386.676 8.409,386.967 8.700 M31.795 13.904 C 31.848 17.575,31.980 17.327,29.972 17.331 C 27.827 17.335,28.000 17.626,28.000 14.010 C 28.000 10.328,27.809 10.645,29.991 10.703 L 31.750 10.750 31.795 13.904 M209.462 13.904 C 209.515 17.575,209.647 17.327,207.639 17.331 C 205.493 17.335,205.667 17.626,205.667 14.010 C 205.667 10.328,205.476 10.645,207.658 10.703 L 209.417 10.750 209.462 13.904 M385.000 18.250 L 385.083 19.250 386.083 19.333 L 387.083 19.417 387.083 21.500 L 387.083 23.583 385.208 23.630 L 383.333 23.678 383.333 20.533 C 383.333 17.039,383.308 17.132,384.244 17.200 L 384.917 17.250 385.000 18.250 M276.240 21.716 C 276.193 21.838,276.176 22.758,276.202 23.761 L 276.250 25.583 279.713 25.628 L 283.177 25.673 283.130 23.628 L 283.083 21.583 279.704 21.538 C 277.008 21.502,276.308 21.538,276.240 21.716 M311.833 23.580 L 311.833 25.667 315.255 25.667 L 318.677 25.667 318.630 23.625 L 318.583 21.583 315.208 21.538 L 311.833 21.493 311.833 23.580 M365.073 21.716 C 365.027 21.838,365.010 22.758,365.036 23.761 L 365.083 25.583 368.547 25.628 L 372.010 25.673 371.963 23.628 L 371.917 21.583 368.538 21.538 C 365.842 21.502,365.142 21.538,365.073 21.716 " stroke="none" fill="#040404" fill-rule="evenodd"></path><path id="path2" d="" stroke="none" fill="#bc10080" fill-rule="evenodd"></path><path id="path3" d="" stroke="none" fill="#bc10080" fill-rule="evenodd"></path><path id="path4" d="" stroke="none" fill="#bc10080" fill-rule="evenodd"></path></g></svg>