<?xml version="1.0" encoding="UTF-8" standalone="no"?>
<svg
   id="svg"
   version="1.1"
   width="400"
   height="33.91655450874831"
   viewBox="0, 0, 400,33.91655450874831"
   sodipodi:docname="Navi.svg"
   inkscape:version="1.1 (c68e22c387, 2021-05-23)"
   xmlns:inkscape="http://www.inkscape.org/namespaces/inkscape"
   xmlns:sodipodi="http://sodipodi.sourceforge.net/DTD/sodipodi-0.dtd"
   xmlns="http://www.w3.org/2000/svg"
   xmlns:svg="http://www.w3.org/2000/svg">
  <defs
     id="defs11" />
  <sodipodi:namedview
     id="namedview9"
     pagecolor="#ffffff"
     bordercolor="#999999"
     borderopacity="1"
     inkscape:pageshadow="0"
     inkscape:pageopacity="0"
     inkscape:pagecheckerboard="0"
     showgrid="false"
     inkscape:zoom="1.46625"
     inkscape:cx="205.6266"
     inkscape:cy="-62.404092"
     inkscape:window-width="1920"
     inkscape:window-height="1137"
     inkscape:window-x="3278"
     inkscape:window-y="-8"
     inkscape:window-maximized="1"
     inkscape:current-layer="svg" />
  <g
     id="svgg">
    <path
       id="path1"
       d="M5.500 16.083 L 5.500 25.667 7.831 25.667 L 10.162 25.667 10.206 20.375 L 10.250 15.083 11.000 15.083 L 11.750 15.083 11.833 16.083 L 11.917 17.083 12.917 17.167 L 13.917 17.250 14.000 18.250 L 14.083 19.250 15.121 19.300 L 16.159 19.349 16.205 22.466 L 16.250 25.583 18.626 25.630 L 21.003 25.676 20.960 16.130 L 20.917 6.583 18.583 6.583 L 16.250 6.583 16.205 10.789 L 16.161 14.995 15.747 15.099 C 14.785 15.340,14.500 15.088,14.500 13.997 L 14.500 13.000 13.680 13.000 C 12.404 13.000,12.333 12.938,12.333 11.816 L 12.333 10.833 11.450 10.833 C 10.211 10.833,10.167 10.752,10.167 8.467 L 10.167 6.500 7.833 6.500 L 5.500 6.500 5.500 16.083 M27.585 6.704 C 27.544 6.821,27.489 7.292,27.463 7.750 L 27.417 8.583 26.417 8.667 L 25.417 8.750 25.333 9.750 L 25.250 10.750 24.250 10.833 L 23.250 10.917 23.250 18.250 L 23.250 25.583 25.621 25.630 L 27.993 25.676 28.038 22.546 L 28.083 19.417 29.917 19.417 L 31.750 19.417 31.795 22.542 L 31.841 25.667 34.170 25.667 L 36.500 25.667 36.500 18.258 L 36.500 10.850 35.542 10.800 L 34.583 10.750 34.500 9.750 L 34.417 8.750 33.417 8.667 L 32.417 8.583 32.333 7.583 L 32.250 6.583 29.955 6.537 C 28.208 6.502,27.642 6.541,27.585 6.704 M41.076 6.708 C 41.032 6.823,41.016 10.179,41.040 14.167 L 41.083 21.417 42.083 21.500 L 43.083 21.583 43.167 22.583 L 43.250 23.583 44.250 23.667 L 45.250 23.750 45.300 24.708 L 45.350 25.667 47.667 25.667 L 49.983 25.667 50.033 24.708 L 50.083 23.750 51.083 23.667 L 52.083 23.583 52.167 22.583 L 52.250 21.583 53.250 21.500 L 54.250 21.417 54.250 14.000 L 54.250 6.583 51.958 6.537 L 49.667 6.491 49.667 13.732 C 49.667 17.714,49.621 21.091,49.566 21.236 C 49.415 21.627,45.918 21.627,45.768 21.236 C 45.712 21.091,45.667 17.716,45.667 13.736 L 45.667 6.500 43.411 6.500 C 41.761 6.500,41.135 6.556,41.076 6.708 M60.902 6.728 C 60.853 6.857,60.836 7.289,60.864 7.689 L 60.917 8.417 61.917 8.500 L 62.917 8.583 62.960 16.117 L 63.003 23.651 61.960 23.700 L 60.917 23.750 60.917 24.667 L 60.917 25.583 65.467 25.628 L 70.017 25.672 69.967 24.711 L 69.917 23.750 68.917 23.667 L 67.917 23.583 67.873 16.178 C 67.825 7.895,67.724 8.507,69.133 8.503 L 70.017 8.500 69.967 7.542 L 69.917 6.583 65.454 6.539 C 61.750 6.502,60.976 6.534,60.902 6.728 M94.333 7.498 L 94.333 8.500 96.300 8.500 C 97.607 8.500,98.334 8.567,98.467 8.700 C 98.617 8.850,98.667 10.985,98.667 17.283 L 98.667 25.667 101.000 25.667 L 103.333 25.667 103.333 17.184 C 103.333 9.604,103.361 8.692,103.597 8.601 C 103.742 8.546,104.721 8.500,105.772 8.500 L 107.683 8.500 107.633 7.542 L 107.583 6.583 100.958 6.540 L 94.333 6.496 94.333 7.498 M112.111 6.611 C 112.050 6.672,112.000 10.985,112.000 16.194 L 112.000 25.667 118.667 25.667 L 125.333 25.667 125.333 24.670 L 125.333 23.672 121.125 23.628 L 116.917 23.583 116.917 20.417 L 116.917 17.250 120.083 17.167 L 123.250 17.083 123.250 16.167 L 123.250 15.250 120.083 15.157 C 118.342 15.106,116.898 15.050,116.875 15.032 C 116.655 14.862,116.868 8.689,117.097 8.601 C 117.242 8.546,119.154 8.500,121.347 8.500 L 125.333 8.500 125.333 7.500 L 125.333 6.500 118.778 6.500 C 115.172 6.500,112.172 6.550,112.111 6.611 M129.833 16.081 L 129.833 25.667 132.167 25.667 L 134.500 25.667 134.500 21.680 C 134.500 17.028,134.472 17.167,135.417 17.167 C 136.242 17.167,136.333 17.300,136.333 18.514 L 136.333 19.333 137.316 19.333 C 138.552 19.333,138.500 19.183,138.500 22.764 L 138.500 25.667 140.837 25.667 L 143.174 25.667 143.129 22.542 L 143.083 19.417 142.083 19.333 L 141.083 19.250 141.083 17.167 L 141.083 15.083 142.083 15.000 L 143.083 14.917 143.083 11.833 L 143.083 8.750 142.083 8.667 L 141.083 8.583 141.000 7.583 L 140.917 6.583 135.375 6.539 L 129.833 6.496 129.833 16.081 M147.578 6.704 C 147.533 6.821,147.516 11.117,147.540 16.250 L 147.583 25.583 149.956 25.630 L 152.329 25.676 152.373 19.296 L 152.417 12.917 153.167 12.917 L 153.917 12.917 154.000 16.083 L 154.083 19.250 155.333 19.250 L 156.583 19.250 156.667 16.083 L 156.750 12.917 157.500 12.917 L 158.250 12.917 158.294 19.296 L 158.337 25.676 160.710 25.630 L 163.083 25.583 163.083 16.083 L 163.083 6.583 160.750 6.583 L 158.417 6.583 158.333 8.667 L 158.250 10.750 157.250 10.833 L 156.250 10.917 156.167 11.917 L 156.083 12.917 155.333 12.917 L 154.583 12.917 154.500 11.917 L 154.417 10.917 153.417 10.833 L 152.417 10.750 152.333 8.667 L 152.250 6.583 149.955 6.537 C 148.211 6.502,147.640 6.542,147.578 6.704 M167.611 6.611 C 167.550 6.672,167.500 7.122,167.500 7.611 L 167.500 8.500 168.396 8.500 C 169.747 8.500,169.676 8.048,169.627 16.269 L 169.583 23.583 168.583 23.667 L 167.583 23.750 167.533 24.708 L 167.483 25.667 172.000 25.667 L 176.517 25.667 176.467 24.708 L 176.417 23.750 175.504 23.698 C 174.266 23.628,174.339 24.104,174.336 16.075 C 174.333 8.035,174.254 8.500,175.617 8.500 L 176.500 8.500 176.500 7.500 L 176.500 6.500 172.111 6.500 C 169.697 6.500,167.672 6.550,167.611 6.611 M183.167 16.083 L 183.167 25.667 185.498 25.667 L 187.829 25.667 187.873 20.375 L 187.917 15.083 188.667 15.083 L 189.417 15.083 189.500 16.083 L 189.583 17.083 190.583 17.167 L 191.583 17.250 191.667 18.250 L 191.750 19.250 192.750 19.333 L 193.750 19.417 193.795 22.542 L 193.841 25.667 196.255 25.667 L 198.669 25.667 198.626 16.125 L 198.583 6.583 196.250 6.583 L 193.917 6.583 193.872 10.789 L 193.828 14.995 193.414 15.099 C 192.454 15.340,192.167 15.088,192.167 14.005 L 192.167 13.016 191.125 12.966 L 190.083 12.917 190.034 11.875 L 189.984 10.833 189.109 10.833 C 187.879 10.833,187.833 10.750,187.833 8.467 L 187.833 6.500 185.500 6.500 L 183.167 6.500 183.167 16.083 M205.252 6.704 C 205.210 6.821,205.156 7.292,205.130 7.750 L 205.083 8.583 204.083 8.667 L 203.083 8.750 203.000 9.750 L 202.917 10.750 201.917 10.833 L 200.917 10.917 200.873 18.292 L 200.830 25.667 203.245 25.667 L 205.659 25.667 205.705 22.542 L 205.750 19.417 207.583 19.417 L 209.417 19.417 209.462 22.542 L 209.507 25.667 211.837 25.667 L 214.167 25.667 214.167 18.250 L 214.167 10.833 213.283 10.833 C 212.181 10.833,212.000 10.654,212.000 9.558 L 212.000 8.683 211.042 8.633 L 210.083 8.583 210.000 7.583 L 209.917 6.583 207.622 6.537 C 205.875 6.502,205.309 6.541,205.252 6.704 M218.667 16.083 L 218.667 25.667 225.342 25.667 L 232.017 25.667 231.967 24.708 L 231.917 23.750 227.758 23.705 C 224.686 23.672,223.565 23.607,223.469 23.455 C 223.397 23.342,223.337 19.481,223.336 14.875 L 223.333 6.500 221.000 6.500 L 218.667 6.500 218.667 16.083 M254.243 6.708 C 254.199 6.823,254.183 10.179,254.207 14.167 L 254.250 21.417 255.250 21.500 L 256.250 21.583 256.333 22.583 L 256.417 23.583 257.417 23.667 L 258.417 23.750 258.467 24.708 L 258.517 25.667 260.833 25.667 L 263.150 25.667 263.200 24.708 L 263.250 23.750 264.250 23.667 L 265.250 23.583 265.333 22.583 L 265.417 21.583 266.417 21.500 L 267.417 21.417 267.460 13.958 L 267.503 6.500 265.170 6.500 L 262.837 6.500 262.793 13.958 L 262.750 21.417 260.930 21.464 C 259.586 21.499,259.075 21.456,258.974 21.298 C 258.900 21.180,258.837 17.802,258.836 13.792 L 258.833 6.500 256.578 6.500 C 254.928 6.500,254.301 6.556,254.243 6.708 M296.250 6.708 C 296.209 6.823,296.156 7.292,296.130 7.750 L 296.083 8.583 295.083 8.667 L 294.083 8.750 294.000 9.750 L 293.917 10.750 291.833 10.833 L 289.750 10.917 289.750 11.833 L 289.750 12.750 292.917 12.833 L 296.083 12.917 296.127 19.292 L 296.171 25.667 298.502 25.667 L 300.833 25.667 300.833 16.083 L 300.833 6.500 298.578 6.500 C 296.924 6.500,296.303 6.556,296.250 6.708 M327.417 6.706 C 327.377 6.822,327.322 7.292,327.297 7.750 L 327.250 8.583 326.250 8.667 L 325.250 8.750 325.250 12.917 L 325.250 17.083 326.250 17.167 L 327.250 17.250 327.333 18.250 L 327.417 19.250 329.500 19.333 L 331.583 19.417 331.583 20.417 L 331.583 21.417 330.583 21.500 L 329.583 21.583 329.500 22.583 L 329.417 23.583 328.417 23.667 L 327.417 23.750 327.417 24.667 L 327.417 25.583 330.875 25.628 L 334.333 25.673 334.333 23.587 L 334.333 21.500 335.217 21.500 C 336.319 21.500,336.500 21.321,336.500 20.225 L 336.500 19.349 337.542 19.300 L 338.583 19.250 338.583 14.000 L 338.583 8.750 337.583 8.667 L 336.583 8.583 336.500 7.583 L 336.417 6.583 331.954 6.539 C 328.472 6.504,327.475 6.541,327.417 6.706 M345.250 6.708 C 345.209 6.823,345.156 7.292,345.130 7.750 L 345.083 8.583 344.083 8.667 L 343.083 8.750 343.083 12.917 L 343.083 17.083 344.083 17.167 L 345.083 17.250 345.167 18.250 L 345.250 19.250 347.333 19.333 L 349.417 19.417 349.417 20.417 L 349.417 21.417 348.417 21.500 L 347.417 21.583 347.333 22.583 L 347.250 23.583 346.250 23.667 L 345.250 23.750 345.200 24.708 L 345.150 25.667 348.570 25.667 L 351.990 25.667 352.037 23.625 L 352.083 21.583 353.083 21.500 L 354.083 21.417 354.167 20.417 L 354.250 19.417 355.250 19.333 L 356.250 19.250 356.294 13.966 L 356.338 8.683 355.294 8.633 L 354.250 8.583 354.200 7.542 L 354.151 6.500 349.737 6.500 C 346.356 6.500,345.306 6.549,345.250 6.708 M380.750 6.708 C 380.709 6.823,380.656 7.292,380.630 7.750 L 380.583 8.583 379.583 8.667 L 378.583 8.750 378.583 11.833 L 378.583 14.917 379.583 15.000 L 380.583 15.083 380.634 16.068 C 380.694 17.232,380.599 17.327,379.371 17.331 L 378.493 17.333 378.538 20.458 L 378.583 23.583 379.625 23.633 L 380.667 23.683 380.667 24.675 L 380.667 25.667 385.158 25.667 L 389.650 25.667 389.700 24.708 L 389.750 23.750 390.750 23.667 L 391.750 23.583 391.795 20.458 L 391.841 17.333 390.954 17.333 C 389.883 17.333,389.667 17.148,389.667 16.230 C 389.667 15.082,389.746 15.000,390.851 15.000 L 391.833 15.000 391.833 11.833 L 391.833 8.667 390.851 8.667 C 389.729 8.667,389.667 8.596,389.667 7.320 L 389.667 6.500 385.245 6.500 C 381.857 6.500,380.806 6.549,380.750 6.708 M138.300 8.700 C 138.440 8.840,138.500 9.774,138.500 11.833 C 138.500 15.350,138.610 15.167,136.500 15.167 C 134.390 15.167,134.500 15.350,134.500 11.833 C 134.500 9.774,134.560 8.840,134.700 8.700 C 134.972 8.428,138.028 8.428,138.300 8.700 M333.570 8.601 C 333.800 8.690,333.833 9.227,333.833 12.917 C 333.833 16.606,333.800 17.144,333.570 17.232 C 333.227 17.364,330.606 17.364,330.264 17.232 C 329.912 17.097,329.859 8.751,330.208 8.610 C 330.509 8.489,333.258 8.481,333.570 8.601 M351.467 8.700 C 351.611 8.844,351.667 10.015,351.667 12.917 C 351.667 17.659,351.814 17.333,349.667 17.333 C 347.519 17.333,347.667 17.659,347.667 12.917 C 347.667 10.015,347.722 8.844,347.867 8.700 C 348.139 8.428,351.194 8.428,351.467 8.700 M386.967 8.700 C 387.281 9.014,387.245 14.727,386.928 14.991 C 386.243 15.559,385.588 15.143,385.500 14.083 L 385.417 13.083 384.417 13.000 L 383.417 12.917 383.369 10.926 C 383.343 9.832,383.360 8.838,383.406 8.718 C 383.518 8.425,386.676 8.409,386.967 8.700 M31.795 13.904 C 31.848 17.575,31.980 17.327,29.972 17.331 C 27.827 17.335,28.000 17.626,28.000 14.010 C 28.000 10.328,27.809 10.645,29.991 10.703 L 31.750 10.750 31.795 13.904 M209.462 13.904 C 209.515 17.575,209.647 17.327,207.639 17.331 C 205.493 17.335,205.667 17.626,205.667 14.010 C 205.667 10.328,205.476 10.645,207.658 10.703 L 209.417 10.750 209.462 13.904 M385.000 18.250 L 385.083 19.250 386.083 19.333 L 387.083 19.417 387.083 21.500 L 387.083 23.583 385.208 23.630 L 383.333 23.678 383.333 20.533 C 383.333 17.039,383.308 17.132,384.244 17.200 L 384.917 17.250 385.000 18.250 M276.240 21.716 C 276.193 21.838,276.176 22.758,276.202 23.761 L 276.250 25.583 279.713 25.628 L 283.177 25.673 283.130 23.628 L 283.083 21.583 279.704 21.538 C 277.008 21.502,276.308 21.538,276.240 21.716 M311.833 23.580 L 311.833 25.667 315.255 25.667 L 318.677 25.667 318.630 23.625 L 318.583 21.583 315.208 21.538 L 311.833 21.493 311.833 23.580 M365.073 21.716 C 365.027 21.838,365.010 22.758,365.036 23.761 L 365.083 25.583 368.547 25.628 L 372.010 25.673 371.963 23.628 L 371.917 21.583 368.538 21.538 C 365.842 21.502,365.142 21.538,365.073 21.716 "
       stroke="none"
       fill="#040404"
       fill-rule="evenodd" />
  </g>
</svg>
